<?xml version="1.0" encoding="UTF-8" standalone="no"?>
<!-- Created with Inkscape (http://www.inkscape.org/) -->

<svg
   version="1.1"
   id="svg1"
   width="1706.6667"
   height="1365.3333"
   viewBox="0 0 1706.6667 1365.3333"
   sodipodi:docname="logo_nerdworks [+ e - ].pdf"
   xmlns:inkscape="http://www.inkscape.org/namespaces/inkscape"
   xmlns:sodipodi="http://sodipodi.sourceforge.net/DTD/sodipodi-0.dtd"
   xmlns="http://www.w3.org/2000/svg"
   xmlns:svg="http://www.w3.org/2000/svg">
  <defs
     id="defs1">
    <clipPath
       clipPathUnits="userSpaceOnUse"
       id="clipPath2">
      <path
         d="M 0,1024 H 1280 V 0 H 0 Z"
         transform="translate(-134.60001,-505.20002)"
         id="path2" />
    </clipPath>
    <clipPath
       clipPathUnits="userSpaceOnUse"
       id="clipPath4">
      <path
         d="M 0,1024 H 1280 V 0 H 0 Z"
         transform="translate(-197.00001,-506.40002)"
         id="path4" />
    </clipPath>
    <clipPath
       clipPathUnits="userSpaceOnUse"
       id="clipPath6">
      <path
         d="M 0,1024 H 1280 V 0 H 0 Z"
         transform="translate(-1083.8001,-514.40001)"
         id="path6" />
    </clipPath>
    <clipPath
       clipPathUnits="userSpaceOnUse"
       id="clipPath8">
      <path
         d="M 0,1024 H 1280 V 0 H 0 Z"
         transform="translate(-1151.8,-446.90001)"
         id="path8" />
    </clipPath>
    <clipPath
       clipPathUnits="userSpaceOnUse"
       id="clipPath10">
      <path
         d="M 0,1024 H 1280 V 0 H 0 Z"
         transform="translate(-866.90005,-430.00001)"
         id="path10" />
    </clipPath>
    <clipPath
       clipPathUnits="userSpaceOnUse"
       id="clipPath12">
      <path
         d="M 0,1024 H 1280 V 0 H 0 Z"
         transform="translate(-1030.2,-527.20001)"
         id="path12" />
    </clipPath>
    <clipPath
       clipPathUnits="userSpaceOnUse"
       id="clipPath14">
      <path
         d="M 0,1024 H 1280 V 0 H 0 Z"
         transform="translate(-710.80002,-615.30002)"
         id="path14" />
    </clipPath>
    <clipPath
       clipPathUnits="userSpaceOnUse"
       id="clipPath16">
      <path
         d="M 0,1024 H 1280 V 0 H 0 Z"
         transform="translate(-410.40001,-432.20001)"
         id="path16" />
    </clipPath>
    <clipPath
       clipPathUnits="userSpaceOnUse"
       id="clipPath18">
      <path
         d="M 0,1024 H 1280 V 0 H 0 Z"
         transform="translate(-576.60001,-473.30001)"
         id="path18" />
    </clipPath>
  </defs>
  <sodipodi:namedview
     id="namedview1"
     pagecolor="#ffffff"
     bordercolor="#000000"
     borderopacity="0.25"
     inkscape:showpageshadow="2"
     inkscape:pageopacity="0.0"
     inkscape:pagecheckerboard="0"
     inkscape:deskcolor="#d1d1d1">
    <inkscape:page
       x="0"
       y="0"
       inkscape:label="1"
       id="page1"
       width="1706.6667"
       height="1365.3333"
       margin="538.69464 71.773331 538.51202 71.843201"
       bleed="0" />
  </sodipodi:namedview>
  <g
     id="layer-MC0"
     inkscape:groupmode="layer"
     inkscape:label="Livello 1">
    <path
       id="path1"
       d="m 0,0 c 5.1,16.6 5.1,32.2 6.7,47.6 0.7,6.4 2.8,11.5 9.1,14.3 9.9,4.3 19,-1.1 17.2,-11.6 -5.1,-29.9 -9.6,-59.9 -20.5,-88.5 -1,-2.5 -2.4,-5 -4,-7.2 -5.6,-7.8 -12.8,-7.4 -17.4,1 -5.9,10.9 -7.9,23.2 -11.7,34.8 -2.1,6.2 -4.2,12.4 -6.3,18.6 -1.1,3.2 -3,7.2 -5.9,7.3 -2.9,0.1 -5,-3.8 -6.7,-6.6 -6.7,-11.1 -10,-23.6 -14,-35.7 -2.3,-7 -4.1,-14.2 -6.9,-21 -2.4,-5.7 -6.2,-11 -13.6,-9.1 -6.7,1.8 -6.8,7.9 -6.7,13.4 0.2,8.7 4.4,16.3 7.2,24.2 6.8,19.3 13.8,38.6 25.3,55.8 5.3,7.9 10.8,16.9 22.2,15.7 11.5,-1.3 14.3,-11.6 17.8,-20.4 3.9,-9.9 6.6,-20.2 8.3,-32.7"
       style="fill:#000000;fill-opacity:1;fill-rule:nonzero;stroke:none"
       transform="matrix(1.3333333,0,0,-1.3333333,179.46667,691.73333)"
       clip-path="url(#clipPath2)" />
    <path
       id="path3"
       d="m 0,0 c 15.4,3.1 29.3,5.9 43.3,8.8 4.9,1 10.1,2.2 13.4,-2.9 3.2,-4.9 3.4,-10.3 0.8,-15.7 -2.6,-5.4 -6.8,-6.2 -12.8,-6 -16.2,0.4 -32,-3.1 -47.5,-8.1 -1.9,-0.6 -2.6,-1.8 -2.7,-4.3 11.6,1 23.1,2.6 34.6,2 4.4,-0.2 8.8,-0.4 13.1,-1 6.9,-0.9 10.2,-5.2 9.4,-12 -0.8,-6.8 -4.9,-10.6 -11.8,-9.3 -15.5,2.9 -30.5,0.6 -45.5,-3.3 -2.9,-0.7 -5.7,-1.8 -8.4,-3.1 -10.9,-5.3 -17.6,-1.1 -17.6,11.1 0,8.1 3.1,15.5 4.9,23.2 4.1,17.4 6.1,35.1 8.1,52.7 0.8,6.7 3.8,10 10.4,11.8 17.7,4.8 35,11.1 53.7,10.7 2.7,0 5.5,-0.2 8.2,-0.7 8.5,-1.4 12.1,-5.8 11,-13.2 C 63.1,30.7 59.1,27.2 50,28.7 35.7,31 22.2,28.1 8.8,23.7 5.9,22.8 4.2,21.3 3.7,18.1 2.8,12.5 1.5,6.9 0,-0.1"
       style="fill:#000000;fill-opacity:1;fill-rule:nonzero;stroke:none"
       transform="matrix(1.3333333,0,0,-1.3333333,262.66667,690.13333)"
       clip-path="url(#clipPath4)" />
    <path
       id="path5"
       d="M 0,0 C 18,13.3 34.1,27.4 49.9,41.7 56.4,47.6 61.8,48.1 66.3,43 71,37.7 70.2,29.7 64.3,24.8 51.5,14.5 39,3.8 25.6,-5.7 c -6.8,-4.8 -5.6,-7.8 -0.8,-12.7 7.9,-8.1 13.6,-17.8 17.8,-28.3 2.5,-6.2 1.8,-11.8 -3.8,-16.2 -6.4,-5.1 -12.4,-3.7 -15.6,3.8 -4.7,11 -11.6,20.3 -20.9,27.9 -5.4,4.4 -7.7,2.4 -8.8,-3.3 -1.1,-5.4 -2.1,-10.7 -3.1,-16.1 -1.4,-7.5 -6.6,-11.4 -13.9,-10.2 -6.1,0.9 -9.8,6.2 -8.5,13.6 2.4,13.5 5.4,26.8 8.2,40.2 2.3,11.3 3.9,22.6 4.8,34.1 0.8,10 4.9,13.7 14.1,12.7 C 3.4,38.9 6.2,34.4 4.5,24.3 3.2,16.5 1.8,8.7 0.3,-0.2"
       style="fill:#000000;fill-opacity:1;fill-rule:nonzero;stroke:none"
       transform="matrix(1.3333333,0,0,-1.3333333,1445.0667,679.46667)"
       clip-path="url(#clipPath6)" />
    <path
       id="path7"
       d="m 0,0 c -6.1,0.3 -11.1,0 -11.8,5.2 -0.8,5.4 2.5,9.2 7.9,10.9 12.2,4 24.3,8.3 35,15.7 8.1,5.6 8.4,8.4 1.1,15.2 -6.2,5.7 -13.1,10.8 -19,16.8 -9,9.3 -9,19.8 0,29.1 12.3,12.5 27.6,20.4 44.2,25.7 5.2,1.7 11.1,1.9 15.1,-3.2 3,-3.9 2.1,-8.2 -0.6,-12.1 -2.1,-3.1 -5.7,-4 -9,-5.2 C 55.9,95.7 49.2,92.5 43.3,88 36,82.5 35.8,79.2 42.2,72.8 46.6,68.3 51.3,64 55.7,59.6 65.7,49.6 66,37.5 55.4,28 39,13.3 20.1,3.5 0,0.1"
       style="fill:#000000;fill-opacity:1;fill-rule:nonzero;stroke:none"
       transform="matrix(1.3333333,0,0,-1.3333333,1535.7333,769.46667)"
       clip-path="url(#clipPath8)" />
    <path
       id="path9"
       d="m 0,0 c -25,-3.9 -49.7,-2.4 -74,5.1 -34.5,10.6 -59.1,42.2 -60.7,77.9 -1.7,38.6 19.3,72.5 53.2,86.8 14.3,6 29.1,7.4 46.1,6.4 13.1,0.5 27.9,-0.7 42.4,-4 39.8,-9 67.6,-46.4 66.2,-88.8 C 71.9,42.3 40.3,6.3 0,-0.1 m 103.4,172 c -1.8,7.2 -5.6,11.3 -13.2,12.6 -18.7,3.2 -37.6,4.5 -56.5,4.9 -59.9,1.4 -119.8,2.6 -177.9,-15.5 -0.7,-0.5 -1.3,-1 -1.6,-1.8 -7.2,-19.5 -16.3,-38.2 -25.6,-56.8 -1.1,-2.2 -1.7,-4.6 -0.9,-7.1 0.7,-5.5 1,-10.9 2,-16.3 7.2,-40.4 24.6,-75 61.7,-95.3 50.1,-27.5 102.4,-29.2 155.6,-8.8 23.8,9.1 38.3,26.3 46,50.3 10.4,32.5 14.5,65.8 14.4,99.7 0,11.5 -1.2,23 -4,34.3"
       style="fill:#000000;fill-opacity:1;fill-rule:nonzero;stroke:none"
       transform="matrix(1.3333333,0,0,-1.3333333,1155.8667,792)"
       clip-path="url(#clipPath10)" />
    <path
       id="path11"
       d="m 0,0 c -9.8,-11.5 -22.2,-19 -37.8,-24.3 1.8,10.6 3.4,19.9 4.9,29.3 0.3,1.9 1.4,2.9 3.2,3.1 C -21.3,9 -13,11.6 -4.5,9.9 2.6,8.5 4.3,5.3 -0.1,0 m 14.4,27.4 c -5.9,3.5 -12.5,5.3 -19.5,5.7 -14,0.8 -27,-4 -40.5,-6.3 -4.5,-0.8 -6,-4.4 -6.4,-8.5 -2.8,-25.6 -7.4,-50.9 -13.4,-75.9 -1.6,-6.5 -2.2,-13.5 5.5,-17 4.9,-2.2 13.2,3.8 16.2,11.2 0.8,2 1.1,4.2 1.5,6.4 0.8,3.4 1,7 3.9,10.6 6.5,-10.9 9.4,-22.3 12.8,-33.6 2.4,-8 8.5,-11 15.9,-8.8 6.7,2.1 9.7,8.9 7.4,16.5 -3,9.9 -5.7,20 -9.1,29.8 -1.6,4.5 -0.2,6.1 3.6,8.1 11.4,6.2 21.7,13.9 28.3,25.5 8.2,14.6 5.9,29 -6.2,36.1"
       style="fill:#000000;fill-opacity:1;fill-rule:nonzero;stroke:none"
       transform="matrix(1.3333333,0,0,-1.3333333,1373.6,662.4)"
       clip-path="url(#clipPath12)" />
    <path
       id="path13"
       d="m 0,0 c -7.6,0.1 -11,-4.1 -12.9,-11 -3.5,-12.4 -7.4,-24.6 -11.7,-36.7 -3.9,-10.9 -7.4,-22.2 -15.5,-31.8 -2.4,5.8 -1.8,10.9 -1.6,16 0.6,13.2 3.4,26 6.1,38.9 1.6,7.8 -2.7,15.4 -9.8,17.2 -7.6,2 -12.5,-1.5 -15.6,-10.5 -5.3,-15.5 -9.8,-31.3 -16.5,-46.3 -2,-4.6 -3,-10 -8.3,-12.3 0.2,4.2 0.4,8.4 0.5,12.6 2.5,14.8 5,29.6 7.3,44.5 1.5,9.8 -5.2,16.6 -14.3,15.1 -7.5,-1.3 -9.4,-7.3 -11.2,-13.3 0,-3 0.1,-6 0,-9 -0.3,-17.4 -3.7,-34.9 -0.2,-52.2 1.7,-8.4 2,-18.3 13.1,-21.2 14.8,-0.5 20,12.5 28.9,20.9 1.2,-5 2,-9.7 3.6,-14.3 4.5,-13.5 13.6,-15.6 24.2,-6.2 7.3,6.5 11.7,15.1 17.6,22.6 5.5,11.4 11.3,22.7 16.4,34.3 4.5,10.3 10,20.2 11.7,31.5 C 10.5,-4.7 7.6,0.1 0,0.2"
       style="fill:#d23c2f;fill-opacity:1;fill-rule:nonzero;stroke:none"
       transform="matrix(1.3333333,0,0,-1.3333333,947.73333,544.93333)"
       clip-path="url(#clipPath14)" />
    <path
       id="path15"
       d="m 0,0 v 0 c 0,0 1.2,-1.5 6.7,-3.3 -0.6,0.4 -1.3,0.8 -2,1 C 2.9,-1.6 1.3,-0.9 0,0"
       style="fill:#000000;fill-opacity:1;fill-rule:nonzero;stroke:none"
       transform="matrix(1.3333333,0,0,-1.3333333,547.2,789.06667)"
       clip-path="url(#clipPath16)" />
    <path
       id="path17"
       d="m 0,0 v -0.1 c -7.4,-16.9 -19.1,-28.5 -32.9,-36.5 -6.3,-3.8 -12.8,-6.6 -19.6,-8.6 -44.9,-14.5 -98.3,-1.9 -98.3,-1.9 v 0.2 c -13.4,3 -15.4,5.8 -15.4,5.8 -4.5,3.1 -6.3,7.6 -6.4,14.8 -0.7,43.1 0.1,86.3 -0.5,129.4 0,6.4 2,9.2 8,10.9 31.1,8.6 62.7,10.7 94.7,8.8 C -31,120.5 -4.5,99.4 5.7,63 11.7,41.5 9.3,19.2 0,0 m -248.7,53.6 c -9.6,-11.6 -21.9,-19.3 -37.2,-23.5 1.5,9.3 3.1,17.9 4.2,26.4 0.5,4 2.3,5.4 6.3,5.8 7.6,0.7 15.1,2.9 22.8,1.4 6.8,-1.3 8.4,-4.8 4,-10.2 m 282.4,6.8 c -2,11.6 -3.3,23.1 -1.8,35 1.2,9.6 2.9,19.5 -1.2,28.9 -14,9.4 -30.2,11.3 -46.2,13.4 -45.1,5.9 -90.3,5.6 -135.6,3 -21.4,-1.3 -42.9,-2.8 -63.6,-8.3 -18.4,-4.9 -15.7,-2.5 -15.3,-19.9 0.3,-13.7 3.8,-27 6.4,-40.8 -14.5,14.3 -25.9,17.9 -46.2,14.3 -6.5,-1.1 -12.7,-3.7 -19.2,-4.2 -8.8,-0.6 -11.4,-5.1 -12.3,-13.1 -1.6,-15.5 -3.5,-31 -6.8,-46.3 -2.1,-9.6 -5.8,-18.9 -6.2,-28.8 -0.2,-5.3 -1.6,-11.7 5.3,-14 7.1,-2.4 11,2.9 14.7,7.8 1.6,2.2 2.8,4.5 3.2,7.4 0.7,4.2 1.3,8.6 3.9,12.8 6.7,-10.5 9.6,-22.1 13,-33.6 2.4,-8.1 8.5,-11.2 15.9,-8.8 6.6,2.1 9.8,9.3 7.6,16.4 -3.1,9.9 -5.9,19.9 -9.3,29.7 -1.6,4.5 -0.3,6.4 3.8,8.7 17.8,10 33,22.2 33.1,47.8 5.5,-19.3 9,-36.7 14.9,-53.3 l 15.1,-46.7 c 4.9,-17.2 15.9,-27.4 34.3,-31.2 37.9,-7.8 75.6,-6.4 113.7,-1.6 26.8,3.4 45.3,17.4 59.3,39.4 13.4,21 22.4,43.8 29.3,67.6 -5.1,5.2 -8.7,11.2 -9.9,18.4"
       style="fill:#000000;fill-opacity:1;fill-rule:nonzero;stroke:none"
       transform="matrix(1.3333333,0,0,-1.3333333,768.8,734.26667)"
       clip-path="url(#clipPath18)" />
  </g>
</svg>
